<mxfile host="app.diagrams.net" modified="2021-12-22T19:34:47.405Z" agent="5.0 (Macintosh; Intel Mac OS X 10_15_7) AppleWebKit/605.1.15 (KHTML, like Gecko) Version/15.1 Safari/605.1.15" etag="HYD_xDenVvJCFz86ze0c" version="16.0.3" type="github" pages="2">
  <diagram id="C5RBs43oDa-KdzZeNtuy" name="LandingPage">
    <mxGraphModel dx="925" dy="587" grid="1" gridSize="10" guides="1" tooltips="1" connect="1" arrows="1" fold="1" page="1" pageScale="1" pageWidth="827" pageHeight="1169" math="0" shadow="0">
      <root>
        <mxCell id="WIyWlLk6GJQsqaUBKTNV-0" />
        <mxCell id="WIyWlLk6GJQsqaUBKTNV-1" parent="WIyWlLk6GJQsqaUBKTNV-0" />
        <mxCell id="sBtFGPBeej_N6tUEtEN1-3" value="" style="edgeStyle=orthogonalEdgeStyle;rounded=0;orthogonalLoop=1;jettySize=auto;html=1;" edge="1" parent="WIyWlLk6GJQsqaUBKTNV-1" source="sBtFGPBeej_N6tUEtEN1-1" target="sBtFGPBeej_N6tUEtEN1-2">
          <mxGeometry relative="1" as="geometry" />
        </mxCell>
        <mxCell id="sBtFGPBeej_N6tUEtEN1-1" value="START" style="ellipse;whiteSpace=wrap;html=1;" vertex="1" parent="WIyWlLk6GJQsqaUBKTNV-1">
          <mxGeometry x="340" y="10" width="120" height="80" as="geometry" />
        </mxCell>
        <mxCell id="sBtFGPBeej_N6tUEtEN1-7" value="" style="edgeStyle=orthogonalEdgeStyle;rounded=0;orthogonalLoop=1;jettySize=auto;html=1;" edge="1" parent="WIyWlLk6GJQsqaUBKTNV-1" source="sBtFGPBeej_N6tUEtEN1-2" target="sBtFGPBeej_N6tUEtEN1-6">
          <mxGeometry relative="1" as="geometry" />
        </mxCell>
        <mxCell id="sBtFGPBeej_N6tUEtEN1-2" value="CREATE sub assembly document" style="whiteSpace=wrap;html=1;" vertex="1" parent="WIyWlLk6GJQsqaUBKTNV-1">
          <mxGeometry x="340" y="140" width="120" height="60" as="geometry" />
        </mxCell>
        <mxCell id="sBtFGPBeej_N6tUEtEN1-9" value="" style="edgeStyle=orthogonalEdgeStyle;rounded=0;orthogonalLoop=1;jettySize=auto;html=1;" edge="1" parent="WIyWlLk6GJQsqaUBKTNV-1" source="sBtFGPBeej_N6tUEtEN1-6">
          <mxGeometry relative="1" as="geometry">
            <mxPoint x="400" y="380" as="targetPoint" />
          </mxGeometry>
        </mxCell>
        <mxCell id="sBtFGPBeej_N6tUEtEN1-6" value="SAVE intended document in PREFIX folder" style="whiteSpace=wrap;html=1;" vertex="1" parent="WIyWlLk6GJQsqaUBKTNV-1">
          <mxGeometry x="340" y="260" width="120" height="60" as="geometry" />
        </mxCell>
      </root>
    </mxGraphModel>
  </diagram>
  <diagram id="EA4LTRP9qO2lRJ9FpmL5" name="WorkOrderCreation">
    <mxGraphModel dx="786" dy="499" grid="1" gridSize="10" guides="1" tooltips="1" connect="1" arrows="1" fold="1" page="1" pageScale="1" pageWidth="827" pageHeight="1169" math="0" shadow="0">
      <root>
        <mxCell id="WN6gebjLO7jFgj3deRY--0" />
        <mxCell id="WN6gebjLO7jFgj3deRY--1" parent="WN6gebjLO7jFgj3deRY--0" />
        <mxCell id="WN6gebjLO7jFgj3deRY--4" value="" style="edgeStyle=orthogonalEdgeStyle;rounded=0;orthogonalLoop=1;jettySize=auto;html=1;" edge="1" parent="WN6gebjLO7jFgj3deRY--1" source="WN6gebjLO7jFgj3deRY--2" target="WN6gebjLO7jFgj3deRY--3">
          <mxGeometry relative="1" as="geometry" />
        </mxCell>
        <mxCell id="WN6gebjLO7jFgj3deRY--2" value="START" style="ellipse;whiteSpace=wrap;html=1;" vertex="1" parent="WN6gebjLO7jFgj3deRY--1">
          <mxGeometry x="330" y="60" width="120" height="80" as="geometry" />
        </mxCell>
        <mxCell id="WN6gebjLO7jFgj3deRY--6" value="" style="edgeStyle=orthogonalEdgeStyle;rounded=0;orthogonalLoop=1;jettySize=auto;html=1;" edge="1" parent="WN6gebjLO7jFgj3deRY--1" source="WN6gebjLO7jFgj3deRY--3" target="WN6gebjLO7jFgj3deRY--5">
          <mxGeometry relative="1" as="geometry" />
        </mxCell>
        <mxCell id="WN6gebjLO7jFgj3deRY--3" value="CREATE work order" style="whiteSpace=wrap;html=1;" vertex="1" parent="WN6gebjLO7jFgj3deRY--1">
          <mxGeometry x="330" y="230" width="120" height="60" as="geometry" />
        </mxCell>
        <mxCell id="WN6gebjLO7jFgj3deRY--8" value="" style="edgeStyle=orthogonalEdgeStyle;rounded=0;orthogonalLoop=1;jettySize=auto;html=1;" edge="1" parent="WN6gebjLO7jFgj3deRY--1" source="WN6gebjLO7jFgj3deRY--5" target="WN6gebjLO7jFgj3deRY--7">
          <mxGeometry relative="1" as="geometry" />
        </mxCell>
        <mxCell id="WN6gebjLO7jFgj3deRY--5" value="NOTIFY interested party" style="whiteSpace=wrap;html=1;" vertex="1" parent="WN6gebjLO7jFgj3deRY--1">
          <mxGeometry x="330" y="370" width="120" height="60" as="geometry" />
        </mxCell>
        <mxCell id="WN6gebjLO7jFgj3deRY--10" value="" style="edgeStyle=orthogonalEdgeStyle;rounded=0;orthogonalLoop=1;jettySize=auto;html=1;" edge="1" parent="WN6gebjLO7jFgj3deRY--1" source="WN6gebjLO7jFgj3deRY--7" target="WN6gebjLO7jFgj3deRY--9">
          <mxGeometry relative="1" as="geometry" />
        </mxCell>
        <mxCell id="WN6gebjLO7jFgj3deRY--7" value="CREATE folder based on the numbers inputted inside excel sheet" style="whiteSpace=wrap;html=1;" vertex="1" parent="WN6gebjLO7jFgj3deRY--1">
          <mxGeometry x="330" y="510" width="120" height="60" as="geometry" />
        </mxCell>
        <mxCell id="WN6gebjLO7jFgj3deRY--9" value="" style="whiteSpace=wrap;html=1;" vertex="1" parent="WN6gebjLO7jFgj3deRY--1">
          <mxGeometry x="330" y="650" width="120" height="60" as="geometry" />
        </mxCell>
      </root>
    </mxGraphModel>
  </diagram>
</mxfile>
